<mxfile host="65bd71144e">
    <diagram id="66bctFHtIsnoIWmK04j-" name="Page-1">
        <mxGraphModel dx="1601" dy="1450" grid="1" gridSize="10" guides="1" tooltips="1" connect="1" arrows="1" fold="1" page="1" pageScale="1" pageWidth="827" pageHeight="1169" math="0" shadow="0">
            <root>
                <mxCell id="0"/>
                <mxCell id="1" parent="0"/>
                <mxCell id="4" value="" style="edgeStyle=none;html=1;" edge="1" parent="1" source="2" target="3">
                    <mxGeometry relative="1" as="geometry"/>
                </mxCell>
                <mxCell id="2" value="&lt;ul&gt;&lt;li&gt;Missing values imputed using linear interpolation for wards with 0 occupancy level to run models&lt;/li&gt;&lt;li&gt;Day of week is included as a categorical variable to capture weekly seasonality&lt;/li&gt;&lt;li&gt;Month is included as a categorical variable for machine learning models to capture monthly seasonality&lt;/li&gt;&lt;li&gt;Fourier terms are added for linear models to capture yearly seasonality&lt;/li&gt;&lt;li&gt;Forward lag selection algorithm is used to select the best lags for each ward for linear models&lt;/li&gt;&lt;li&gt;Lags are selected using Hyperopt with TPE algorithm for machine learning models&lt;/li&gt;&lt;/ul&gt;" style="rounded=1;whiteSpace=wrap;html=1;align=left;" vertex="1" parent="1">
                    <mxGeometry x="-160" y="-30" width="490" height="190" as="geometry"/>
                </mxCell>
                <mxCell id="12" value="" style="edgeStyle=none;html=1;" edge="1" parent="1" source="3" target="11">
                    <mxGeometry relative="1" as="geometry"/>
                </mxCell>
                <mxCell id="3" value="&lt;b&gt;Split the data into train test data&lt;/b&gt;&lt;div&gt;The last year (360 days) of data is used to test the models&#39; performance using cross-validation with a validation set size of 30 days and a total of 30 validation sets.&lt;/div&gt;" style="whiteSpace=wrap;html=1;rounded=1;" vertex="1" parent="1">
                    <mxGeometry x="370" y="10" width="270" height="100" as="geometry"/>
                </mxCell>
                <mxCell id="11" value="Hyperaparemeter tuning of models" style="whiteSpace=wrap;html=1;rounded=1;" vertex="1" parent="1">
                    <mxGeometry x="710" y="20" width="190" height="90" as="geometry"/>
                </mxCell>
            </root>
        </mxGraphModel>
    </diagram>
</mxfile>